<?xml version="1.0" encoding="UTF-8"?>
<svg xmlns="http://www.w3.org/2000/svg" xmlns:xlink="http://www.w3.org/1999/xlink" width="16.936pt" height="16.937pt" viewBox="0 0 16.936 16.937" version="1.1">
<defs>
<clipPath id="clip1">
  <path d="M 0 10 L 15.9375 10 L 15.9375 16.9375 L 0 16.9375 Z M 0 10 "/>
</clipPath>
<clipPath id="clip2">
  <path d="M 0 1 L 15.9375 1 L 15.9375 13 L 0 13 Z M 0 1 "/>
</clipPath>
<clipPath id="clip3">
  <path d="M 0 10 L 15.9375 10 L 15.9375 13 L 0 13 Z M 0 10 "/>
</clipPath>
<clipPath id="clip4">
  <path d="M 0 1 L 7 1 L 7 16.9375 L 0 16.9375 Z M 0 1 "/>
</clipPath>
<clipPath id="clip5">
  <path d="M 0 0.699219 L 7 0.699219 L 7 12 L 0 12 Z M 0 0.699219 "/>
</clipPath>
<clipPath id="clip6">
  <path d="M 0 10 L 5 10 L 5 16.9375 L 0 16.9375 Z M 0 10 "/>
</clipPath>
<clipPath id="clip7">
  <path d="M 3 1 L 15.9375 1 L 15.9375 16.9375 L 3 16.9375 Z M 3 1 "/>
</clipPath>
<clipPath id="clip8">
  <path d="M 3 12 L 15.9375 12 L 15.9375 16.9375 L 3 16.9375 Z M 3 12 "/>
</clipPath>
<clipPath id="clip9">
  <path d="M 6 0.699219 L 15.9375 0.699219 L 15.9375 13 L 6 13 Z M 6 0.699219 "/>
</clipPath>
<clipPath id="clip10">
  <path d="M 3 0.699219 L 7 0.699219 L 7 16.9375 L 3 16.9375 Z M 3 0.699219 "/>
</clipPath>
</defs>
<g id="surface1">
<g clip-path="url(#clip1)" clip-rule="nonzero">
<path style="fill-rule:nonzero;fill:rgb(38.819885%,3.529358%,10.5896%);fill-opacity:1;stroke-width:0.09784;stroke-linecap:butt;stroke-linejoin:round;stroke:rgb(38.819885%,3.529358%,10.5896%);stroke-opacity:1;stroke-miterlimit:10;" d="M 16.629432 4.769805 L 4.084066 0.606005 L 0.476546 6.749996 L 16.629432 4.840377 Z M 16.629432 4.769805 " transform="matrix(0.94096,0,0,-0.94096,-0.0812237,17.140539)"/>
</g>
<g clip-path="url(#clip2)" clip-rule="nonzero">
<path style="fill-rule:nonzero;fill:rgb(65.879822%,5.879211%,18.03894%);fill-opacity:1;stroke-width:0.09784;stroke-linecap:butt;stroke-linejoin:round;stroke:rgb(65.879822%,5.879211%,18.03894%);stroke-opacity:1;stroke-miterlimit:10;" d="M 16.629432 4.840377 L 0.476546 6.749996 L 7.118699 17.082695 L 16.629432 5.027188 Z M 16.629432 4.840377 " transform="matrix(0.94096,0,0,-0.94096,-0.0812237,17.140539)"/>
</g>
<g clip-path="url(#clip3)" clip-rule="nonzero">
<path style="fill:none;stroke-width:0.78265;stroke-linecap:round;stroke-linejoin:round;stroke:rgb(100%,71.369934%,75.689697%);stroke-opacity:1;stroke-miterlimit:10;" d="M 0.476546 6.749996 L 16.629432 4.840377 " transform="matrix(0.94096,0,0,-0.94096,-0.0812237,17.140539)"/>
</g>
<g clip-path="url(#clip4)" clip-rule="nonzero">
<path style="fill-rule:nonzero;fill:rgb(33.329773%,3.138733%,9.01947%);fill-opacity:1;stroke-width:0.09784;stroke-linecap:round;stroke-linejoin:round;stroke:rgb(33.329773%,3.138733%,9.01947%);stroke-opacity:1;stroke-miterlimit:10;" d="M 4.084066 0.606005 L 7.118699 17.082695 L 0.476546 6.749996 Z M 4.084066 0.606005 " transform="matrix(0.94096,0,0,-0.94096,-0.0812237,17.140539)"/>
</g>
<g clip-path="url(#clip5)" clip-rule="nonzero">
<path style="fill:none;stroke-width:0.78265;stroke-linecap:round;stroke-linejoin:round;stroke:rgb(100%,71.369934%,75.689697%);stroke-opacity:1;stroke-miterlimit:10;" d="M 0.476546 6.749996 L 7.118699 17.082695 " transform="matrix(0.94096,0,0,-0.94096,-0.0812237,17.140539)"/>
</g>
<g clip-path="url(#clip6)" clip-rule="nonzero">
<path style="fill:none;stroke-width:0.78265;stroke-linecap:round;stroke-linejoin:round;stroke:rgb(100%,71.369934%,75.689697%);stroke-opacity:1;stroke-miterlimit:10;" d="M 4.084066 0.606005 L 0.476546 6.749996 " transform="matrix(0.94096,0,0,-0.94096,-0.0812237,17.140539)"/>
</g>
<g clip-path="url(#clip7)" clip-rule="nonzero">
<path style="fill-rule:nonzero;fill:rgb(70.199585%,6.269836%,19.219971%);fill-opacity:1;stroke-width:0.09784;stroke-linecap:round;stroke-linejoin:round;stroke:rgb(70.199585%,6.269836%,19.219971%);stroke-opacity:1;stroke-miterlimit:10;" d="M 16.629432 5.027188 L 7.118699 17.082695 L 4.084066 0.606005 L 16.629432 4.769805 Z M 16.629432 5.027188 " transform="matrix(0.94096,0,0,-0.94096,-0.0812237,17.140539)"/>
</g>
<g clip-path="url(#clip8)" clip-rule="nonzero">
<path style="fill:none;stroke-width:0.78265;stroke-linecap:round;stroke-linejoin:round;stroke:rgb(100%,71.369934%,75.689697%);stroke-opacity:1;stroke-miterlimit:10;" d="M 16.629432 4.769805 L 4.084066 0.606005 " transform="matrix(0.94096,0,0,-0.94096,-0.0812237,17.140539)"/>
</g>
<g clip-path="url(#clip9)" clip-rule="nonzero">
<path style="fill:none;stroke-width:0.78265;stroke-linecap:round;stroke-linejoin:round;stroke:rgb(100%,71.369934%,75.689697%);stroke-opacity:1;stroke-miterlimit:10;" d="M 7.118699 17.082695 L 16.629432 5.027188 " transform="matrix(0.94096,0,0,-0.94096,-0.0812237,17.140539)"/>
</g>
<g clip-path="url(#clip10)" clip-rule="nonzero">
<path style="fill:none;stroke-width:0.78265;stroke-linecap:round;stroke-linejoin:round;stroke:rgb(100%,71.369934%,75.689697%);stroke-opacity:1;stroke-miterlimit:10;" d="M 7.118699 17.082695 L 4.084066 0.606005 " transform="matrix(0.94096,0,0,-0.94096,-0.0812237,17.140539)"/>
</g>
</g>
</svg>
