<?xml version="1.0" encoding="UTF-8"?>
<svg xmlns="http://www.w3.org/2000/svg" xmlns:xlink="http://www.w3.org/1999/xlink" width="16.936pt" height="17.878pt" viewBox="0 0 16.936 17.878" version="1.1">
<defs>
<clipPath id="clip1">
  <path d="M 0 13 L 15.9375 13 L 15.9375 17.878906 L 0 17.878906 Z M 0 13 "/>
</clipPath>
<clipPath id="clip2">
  <path d="M 11 1.527344 L 15.9375 1.527344 L 15.9375 17 L 11 17 Z M 11 1.527344 "/>
</clipPath>
<clipPath id="clip3">
  <path d="M 0 1.527344 L 12 1.527344 L 12 15 L 0 15 Z M 0 1.527344 "/>
</clipPath>
<clipPath id="clip4">
  <path d="M 10 12 L 15.9375 12 L 15.9375 17 L 10 17 Z M 10 12 "/>
</clipPath>
<clipPath id="clip5">
  <path d="M 10 1.527344 L 12 1.527344 L 12 14 L 10 14 Z M 10 1.527344 "/>
</clipPath>
<clipPath id="clip6">
  <path d="M 4 4 L 15.9375 4 L 15.9375 17.878906 L 4 17.878906 Z M 4 4 "/>
</clipPath>
<clipPath id="clip7">
  <path d="M 4 15 L 15.9375 15 L 15.9375 17.878906 L 4 17.878906 Z M 4 15 "/>
</clipPath>
<clipPath id="clip8">
  <path d="M 15 4 L 15.9375 4 L 15.9375 17 L 15 17 Z M 15 4 "/>
</clipPath>
<clipPath id="clip9">
  <path d="M 0 3 L 5 3 L 5 17.878906 L 0 17.878906 Z M 0 3 "/>
</clipPath>
<clipPath id="clip10">
  <path d="M 0 14 L 5 14 L 5 17.878906 L 0 17.878906 Z M 0 14 "/>
</clipPath>
<clipPath id="clip11">
  <path d="M 4 5 L 5 5 L 5 17.878906 L 4 17.878906 Z M 4 5 "/>
</clipPath>
<clipPath id="clip12">
  <path d="M 0 1.527344 L 15.9375 1.527344 L 15.9375 7 L 0 7 Z M 0 1.527344 "/>
</clipPath>
<clipPath id="clip13">
  <path d="M 10 1.527344 L 15.9375 1.527344 L 15.9375 6 L 10 6 Z M 10 1.527344 "/>
</clipPath>
<clipPath id="clip14">
  <path d="M 4 4 L 15.9375 4 L 15.9375 7 L 4 7 Z M 4 4 "/>
</clipPath>
<clipPath id="clip15">
  <path d="M 0 1.527344 L 12 1.527344 L 12 4 L 0 4 Z M 0 1.527344 "/>
</clipPath>
</defs>
<g id="surface1">
<g clip-path="url(#clip1)" clip-rule="nonzero">
<path style="fill-rule:nonzero;fill:rgb(30.979919%,2.749634%,8.628845%);fill-opacity:1;stroke-width:0.1008;stroke-linecap:butt;stroke-linejoin:round;stroke:rgb(30.979919%,2.749634%,8.628845%);stroke-opacity:1;stroke-miterlimit:10;" d="M 0.352396 4.466345 L 12.046736 5.724203 L 16.575854 2.465396 L 4.877362 1.203387 Z M 0.352396 4.466345 " transform="matrix(0.94096,0,0,-0.94096,0.00434724,18.632339)"/>
</g>
<g clip-path="url(#clip2)" clip-rule="nonzero">
<path style="fill-rule:nonzero;fill:rgb(36.859131%,3.529358%,10.198975%);fill-opacity:1;stroke-width:0.1008;stroke-linecap:butt;stroke-linejoin:round;stroke:rgb(36.859131%,3.529358%,10.198975%);stroke-opacity:1;stroke-miterlimit:10;" d="M 12.046736 5.724203 L 12.046736 17.775558 L 16.575854 14.50845 L 16.575854 2.465396 Z M 12.046736 5.724203 " transform="matrix(0.94096,0,0,-0.94096,0.00434724,18.632339)"/>
</g>
<g clip-path="url(#clip3)" clip-rule="nonzero">
<path style="fill-rule:nonzero;fill:rgb(78.819275%,7.058716%,21.569824%);fill-opacity:1;stroke-width:0.1008;stroke-linecap:butt;stroke-linejoin:round;stroke:rgb(78.819275%,7.058716%,21.569824%);stroke-opacity:1;stroke-miterlimit:10;" d="M 0.352396 4.466345 L 0.352396 16.509398 L 12.046736 17.775558 L 12.046736 5.724203 Z M 0.352396 4.466345 " transform="matrix(0.94096,0,0,-0.94096,0.00434724,18.632339)"/>
</g>
<g clip-path="url(#clip4)" clip-rule="nonzero">
<path style="fill:none;stroke-width:0.8064;stroke-linecap:round;stroke-linejoin:round;stroke:rgb(100%,71.369934%,75.689697%);stroke-opacity:1;stroke-miterlimit:10;" d="M 12.046736 5.724203 L 16.575854 2.465396 " transform="matrix(0.94096,0,0,-0.94096,0.00434724,18.632339)"/>
</g>
<g clip-path="url(#clip5)" clip-rule="nonzero">
<path style="fill:none;stroke-width:0.8064;stroke-linecap:round;stroke-linejoin:round;stroke:rgb(100%,71.369934%,75.689697%);stroke-opacity:1;stroke-miterlimit:10;" d="M 12.046736 5.724203 L 12.046736 17.775558 " transform="matrix(0.94096,0,0,-0.94096,0.00434724,18.632339)"/>
</g>
<path style="fill:none;stroke-width:0.8064;stroke-linecap:round;stroke-linejoin:round;stroke:rgb(100%,71.369934%,75.689697%);stroke-opacity:1;stroke-miterlimit:10;" d="M 0.352396 4.466345 L 12.046736 5.724203 " transform="matrix(0.94096,0,0,-0.94096,0.00434724,18.632339)"/>
<g clip-path="url(#clip6)" clip-rule="nonzero">
<path style="fill-rule:nonzero;fill:rgb(78.819275%,7.058716%,21.569824%);fill-opacity:1;stroke-width:0.1008;stroke-linecap:round;stroke-linejoin:round;stroke:rgb(78.819275%,7.058716%,21.569824%);stroke-opacity:1;stroke-miterlimit:10;" d="M 4.877362 1.203387 L 16.575854 2.465396 L 16.575854 14.50845 L 4.877362 13.250592 Z M 4.877362 1.203387 " transform="matrix(0.94096,0,0,-0.94096,0.00434724,18.632339)"/>
</g>
<g clip-path="url(#clip7)" clip-rule="nonzero">
<path style="fill:none;stroke-width:0.8064;stroke-linecap:round;stroke-linejoin:round;stroke:rgb(100%,71.369934%,75.689697%);stroke-opacity:1;stroke-miterlimit:10;" d="M 16.575854 2.465396 L 4.877362 1.203387 " transform="matrix(0.94096,0,0,-0.94096,0.00434724,18.632339)"/>
</g>
<g clip-path="url(#clip8)" clip-rule="nonzero">
<path style="fill:none;stroke-width:0.8064;stroke-linecap:round;stroke-linejoin:round;stroke:rgb(100%,71.369934%,75.689697%);stroke-opacity:1;stroke-miterlimit:10;" d="M 16.575854 14.50845 L 16.575854 2.465396 " transform="matrix(0.94096,0,0,-0.94096,0.00434724,18.632339)"/>
</g>
<g clip-path="url(#clip9)" clip-rule="nonzero">
<path style="fill-rule:nonzero;fill:rgb(36.859131%,3.529358%,10.198975%);fill-opacity:1;stroke-width:0.1008;stroke-linecap:round;stroke-linejoin:round;stroke:rgb(36.859131%,3.529358%,10.198975%);stroke-opacity:1;stroke-miterlimit:10;" d="M 0.352396 16.509398 L 0.352396 4.466345 L 4.877362 1.203387 L 4.877362 13.250592 Z M 0.352396 16.509398 " transform="matrix(0.94096,0,0,-0.94096,0.00434724,18.632339)"/>
</g>
<g clip-path="url(#clip10)" clip-rule="nonzero">
<path style="fill:none;stroke-width:0.8064;stroke-linecap:round;stroke-linejoin:round;stroke:rgb(100%,71.369934%,75.689697%);stroke-opacity:1;stroke-miterlimit:10;" d="M 4.877362 1.203387 L 0.352396 4.466345 " transform="matrix(0.94096,0,0,-0.94096,0.00434724,18.632339)"/>
</g>
<g clip-path="url(#clip11)" clip-rule="nonzero">
<path style="fill:none;stroke-width:0.8064;stroke-linecap:round;stroke-linejoin:round;stroke:rgb(100%,71.369934%,75.689697%);stroke-opacity:1;stroke-miterlimit:10;" d="M 4.877362 1.203387 L 4.877362 13.250592 " transform="matrix(0.94096,0,0,-0.94096,0.00434724,18.632339)"/>
</g>
<path style="fill:none;stroke-width:0.8064;stroke-linecap:round;stroke-linejoin:round;stroke:rgb(100%,71.369934%,75.689697%);stroke-opacity:1;stroke-miterlimit:10;" d="M 0.352396 16.509398 L 0.352396 4.466345 " transform="matrix(0.94096,0,0,-0.94096,0.00434724,18.632339)"/>
<g clip-path="url(#clip12)" clip-rule="nonzero">
<path style="fill-rule:nonzero;fill:rgb(30.979919%,2.749634%,8.628845%);fill-opacity:1;stroke-width:0.1008;stroke-linecap:round;stroke-linejoin:round;stroke:rgb(30.979919%,2.749634%,8.628845%);stroke-opacity:1;stroke-miterlimit:10;" d="M 0.352396 16.509398 L 4.877362 13.250592 L 16.575854 14.50845 L 12.046736 17.775558 Z M 0.352396 16.509398 " transform="matrix(0.94096,0,0,-0.94096,0.00434724,18.632339)"/>
</g>
<path style="fill:none;stroke-width:0.8064;stroke-linecap:round;stroke-linejoin:round;stroke:rgb(100%,71.369934%,75.689697%);stroke-opacity:1;stroke-miterlimit:10;" d="M 0.352396 16.509398 L 4.877362 13.250592 " transform="matrix(0.94096,0,0,-0.94096,0.00434724,18.632339)"/>
<g clip-path="url(#clip13)" clip-rule="nonzero">
<path style="fill:none;stroke-width:0.8064;stroke-linecap:round;stroke-linejoin:round;stroke:rgb(100%,71.369934%,75.689697%);stroke-opacity:1;stroke-miterlimit:10;" d="M 12.046736 17.775558 L 16.575854 14.50845 " transform="matrix(0.94096,0,0,-0.94096,0.00434724,18.632339)"/>
</g>
<g clip-path="url(#clip14)" clip-rule="nonzero">
<path style="fill:none;stroke-width:0.8064;stroke-linecap:round;stroke-linejoin:round;stroke:rgb(100%,71.369934%,75.689697%);stroke-opacity:1;stroke-miterlimit:10;" d="M 4.877362 13.250592 L 16.575854 14.50845 " transform="matrix(0.94096,0,0,-0.94096,0.00434724,18.632339)"/>
</g>
<g clip-path="url(#clip15)" clip-rule="nonzero">
<path style="fill:none;stroke-width:0.8064;stroke-linecap:round;stroke-linejoin:round;stroke:rgb(100%,71.369934%,75.689697%);stroke-opacity:1;stroke-miterlimit:10;" d="M 12.046736 17.775558 L 0.352396 16.509398 " transform="matrix(0.94096,0,0,-0.94096,0.00434724,18.632339)"/>
</g>
</g>
</svg>
