<?xml version="1.0" encoding="UTF-8"?>
<svg xmlns="http://www.w3.org/2000/svg" xmlns:xlink="http://www.w3.org/1999/xlink" width="56pt" height="56pt" viewBox="0 0 56 56" version="1.1">
<g id="surface1">
<path style=" stroke:none;fill-rule:nonzero;fill:rgb(0%,0%,0%);fill-opacity:1;" d="M 27.957031 0.597656 C 35.675781 0.597656 42.183594 3.246094 47.480469 8.546875 C 52.8125 13.84375 55.480469 20.355469 55.480469 28.074219 C 55.480469 35.792969 52.863281 42.222656 47.628906 47.355469 C 42.070312 52.820312 35.511719 55.550781 27.957031 55.550781 C 20.496094 55.550781 14.054688 52.835938 8.625 47.40625 C 3.226562 42.007812 0.527344 35.566406 0.527344 28.074219 C 0.527344 20.550781 3.226562 14.042969 8.625 8.546875 C 13.921875 3.246094 20.367188 0.597656 27.957031 0.597656 Z M 6.710938 20.664062 C 5.894531 22.921875 5.484375 25.390625 5.484375 28.074219 C 5.484375 34.15625 7.707031 39.425781 12.15625 43.871094 C 16.636719 48.289062 21.9375 50.496094 28.054688 50.496094 C 34.234375 50.496094 39.566406 48.257812 44.046875 43.773438 C 45.652344 42.238281 46.910156 40.632812 47.824219 38.964844 L 37.472656 34.355469 C 37.113281 36.089844 36.238281 37.503906 34.847656 38.597656 C 33.457031 39.695312 31.8125 40.324219 29.917969 40.488281 L 29.917969 44.707031 L 26.726562 44.707031 L 26.726562 40.488281 C 23.6875 40.453125 20.90625 39.359375 18.386719 37.199219 L 22.164062 33.371094 C 23.964844 35.039062 26.007812 35.875 28.296875 35.875 C 29.246094 35.875 30.054688 35.664062 30.726562 35.238281 C 31.398438 34.8125 31.734375 34.109375 31.734375 33.128906 C 31.734375 32.441406 31.488281 31.886719 30.996094 31.460938 L 28.347656 30.332031 L 25.109375 28.859375 L 20.742188 26.945312 Z M 28.054688 5.503906 C 21.804688 5.503906 16.523438 7.710938 12.207031 12.128906 C 11.125 13.207031 10.113281 14.433594 9.164062 15.808594 L 19.664062 20.519531 C 20.121094 19.078125 20.988281 17.925781 22.265625 17.058594 C 23.539062 16.191406 25.027344 15.710938 26.726562 15.613281 L 26.726562 11.390625 L 29.917969 11.390625 L 29.917969 15.613281 C 32.4375 15.742188 34.726562 16.59375 36.785156 18.164062 L 33.203125 21.84375 C 31.667969 20.761719 30.097656 20.222656 28.496094 20.222656 C 27.644531 20.222656 26.882812 20.386719 26.214844 20.714844 C 25.542969 21.042969 25.207031 21.597656 25.207031 22.382812 C 25.207031 22.613281 25.289062 22.839844 25.453125 23.070312 L 28.9375 24.640625 L 31.339844 25.71875 L 35.757812 27.679688 L 49.835938 33.960938 C 50.292969 32.03125 50.523438 30.070312 50.523438 28.074219 C 50.523438 21.761719 48.332031 16.445312 43.949219 12.128906 C 39.597656 7.710938 34.300781 5.503906 28.054688 5.503906 "/>
</g>
</svg>
