<?xml version="1.0" encoding="UTF-8"?>
<svg xmlns="http://www.w3.org/2000/svg" xmlns:xlink="http://www.w3.org/1999/xlink" width="56pt" height="56pt" viewBox="0 0 56 56" version="1.1">
<g id="surface1">
<path style=" stroke:none;fill-rule:nonzero;fill:rgb(0%,0%,0%);fill-opacity:1;" d="M 27.957031 0.695312 C 35.640625 0.695312 42.152344 3.363281 47.480469 8.695312 C 52.8125 13.992188 55.480469 20.484375 55.480469 28.171875 C 55.480469 35.859375 52.863281 42.300781 47.628906 47.503906 C 42.101562 52.933594 35.542969 55.648438 27.957031 55.648438 C 20.53125 55.648438 14.085938 52.949219 8.625 47.550781 C 3.226562 42.15625 0.527344 35.695312 0.527344 28.171875 C 0.527344 20.683594 3.226562 14.1875 8.625 8.695312 C 13.957031 3.363281 20.398438 0.695312 27.957031 0.695312 Z M 28.054688 5.652344 C 21.804688 5.652344 16.523438 7.859375 12.207031 12.277344 C 7.722656 16.824219 5.484375 22.121094 5.484375 28.171875 C 5.484375 34.289062 7.707031 39.554688 12.15625 43.96875 C 16.605469 48.417969 21.902344 50.644531 28.054688 50.644531 C 34.167969 50.644531 39.5 48.402344 44.046875 43.921875 C 48.367188 39.734375 50.523438 34.484375 50.523438 28.171875 C 50.523438 21.890625 48.332031 16.59375 43.949219 12.277344 C 39.597656 7.859375 34.300781 5.652344 28.054688 5.652344 Z M 15.785156 24.296875 C 16.308594 20.925781 17.667969 18.320312 19.859375 16.46875 C 22.050781 14.621094 24.71875 13.699219 27.855469 13.699219 C 32.175781 13.699219 35.609375 15.089844 38.160156 17.867188 C 40.710938 20.648438 41.988281 24.214844 41.988281 28.566406 C 41.988281 32.785156 40.664062 36.292969 38.011719 39.089844 C 35.363281 41.886719 31.929688 43.285156 27.710938 43.285156 C 24.601562 43.285156 21.917969 42.351562 19.664062 40.488281 C 17.40625 38.621094 16.046875 35.972656 15.589844 32.539062 L 22.507812 32.539062 C 22.671875 35.875 24.683594 37.542969 28.542969 37.542969 C 30.472656 37.542969 32.027344 36.710938 33.203125 35.039062 C 34.382812 33.371094 34.972656 31.148438 34.972656 28.367188 C 34.972656 25.457031 34.429688 23.242188 33.351562 21.71875 C 32.273438 20.199219 30.71875 19.4375 28.691406 19.4375 C 25.027344 19.4375 22.96875 21.058594 22.507812 24.296875 L 24.519531 24.296875 L 19.074219 29.742188 L 13.628906 24.296875 L 15.785156 24.296875 "/>
</g>
</svg>
